
<svg xmlns="http://www.w3.org/2000/svg">
  <defs>
    <symbol id="check" viewBox="0 0 16 16"><path fill-rule="evenodd" clip-rule="evenodd" d="M15.7241 2.31035C16.105 2.71028 16.0896 3.34325 15.6897 3.72414L5.18966 13.7241C4.80345 14.092 4.19655 14.092 3.81035 13.7241L0.310347 10.3908C-0.0895837 10.0099 -0.105022 9.37694 0.275864 8.97701C0.65675 8.57708 1.28973 8.56165 1.68966 8.94253L4.5 11.6191L14.3103 2.27586C14.7103 1.89498 15.3433 1.91042 15.7241 2.31035Z"/></symbol>
    <symbol id="close" viewBox="0 0 24 24"><path d="M12 3C16.9706 3 21 7.02944 21 12C21 16.9706 16.9706 21 12 21C7.02944 21 3 16.9706 3 12C3 7.02944 7.02944 3 12 3ZM15.5303 8.46973C15.2557 8.19512 14.8209 8.17766 14.5264 8.41797L14.4697 8.46973L12 10.9395L9.53027 8.46973L9.47363 8.41797C9.17905 8.17766 8.74433 8.19512 8.46973 8.46973C8.19512 8.74433 8.17766 9.17905 8.41797 9.47363L8.46973 9.53027L10.9395 12L8.46973 14.4697L8.41797 14.5264C8.17766 14.8209 8.19512 15.2557 8.46973 15.5303C8.74433 15.8049 9.17905 15.8223 9.47363 15.582L9.53027 15.5303L12 13.0605L14.4697 15.5303L14.5264 15.582C14.8209 15.8223 15.2557 15.8049 15.5303 15.5303C15.8049 15.2557 15.8223 14.8209 15.582 14.5264L15.5303 14.4697L13.0605 12L15.5303 9.53027L15.582 9.47363C15.8223 9.17905 15.8049 8.74433 15.5303 8.46973Z"/></symbol>
    <symbol id="explicit" viewBox="0 0 16 16"><rect width="16" height="16" fill="#AFAFB6" rx="4"/><path d="M9.986 10.75H5.858V5.086H9.89V6.23H7.146v1.128h2.32v1.048h-2.32v1.2h2.84z"/></symbol>
    <symbol id="explicitBadge" fill="none" viewBox="0 0 52 16"><rect width="52" height="16" fill="#222226" rx="4"/><path fill="#FCFCFC" d="M10.136 10.75V9.606h-2.84v-1.2h2.32V7.358h-2.32V6.23h2.744V5.086H6.008v5.664zm2.767-5.664H11.27l1.872 2.688-2.024 2.976h1.616l1.248-2.016 1.288 2.016h1.664l-2.072-2.976 1.848-2.688h-1.584l-1.096 1.8zm7.747 3.752c1.264 0 2.184-.672 2.184-1.92 0-1.216-.856-1.832-2.176-1.832h-2.44v5.664h1.344V8.838zm-1.088-2.664h.984c.64 0 .952.288.952.776 0 .496-.344.824-.952.824h-.984zm6.179-1.088h-1.352v5.664h3.56V9.582h-2.208zm4.882 0h-1.352v5.664h1.352zm5.906 3.968c-.256.376-.704.608-1.232.608-.951 0-1.631-.736-1.631-1.744 0-1 .672-1.752 1.648-1.752.487 0 .928.216 1.167.544l.896-.944c-.464-.528-1.296-.832-2.12-.832-1.72 0-3.047 1.192-3.047 2.984 0 1.76 1.303 2.984 3.032 2.984.968 0 1.712-.376 2.184-.928zm3.562-3.968h-1.352v5.664h1.352zm4.258 1.152h1.608V5.086h-4.56v1.152h1.608v4.512h1.344z"/></symbol>
    <symbol id="facebook" viewBox="0 0 24 24"><path fill="#0866FF" d="M24 12c0-6.627-5.373-12-12-12S0 5.373 0 12c0 5.628 3.874 10.35 9.101 11.646v-7.98H6.627V12H9.1v-1.58c0-4.085 1.848-5.978 5.858-5.978.76 0 2.072.15 2.609.298v3.325c-.283-.03-.775-.045-1.386-.045-1.968 0-2.728.745-2.728 2.683V12h3.92l-.674 3.667h-3.246v8.245C19.395 23.194 24 18.135 24 12"/><path fill="#fff" d="M16.7 15.667 17.373 12h-3.92v-1.297c0-1.938.761-2.683 2.729-2.683.61 0 1.103.015 1.386.045V4.74c-.537-.15-1.848-.299-2.609-.299-4.01 0-5.858 1.894-5.858 5.978V12H6.627v3.667H9.1v7.98a12 12 0 0 0 4.353.265v-8.245z"/></symbol>
    <symbol id="link" viewBox="0 0 16 16"><path d="M6.80276 4.89739C7.34834 4.97578 7.89368 5.13301 8.36135 5.36809C8.82914 5.60327 9.21957 5.91656 9.6094 6.30852L10.1553 6.85735L9.0635 7.955L8.5176 7.40618C7.97184 6.77904 7.19195 6.54316 6.49026 6.46477C5.94466 6.46481 5.39932 6.54414 4.93166 6.77922C4.6198 6.93601 4.30716 7.171 4.07326 7.40618L2.43655 9.05266C1.18929 10.3069 1.18917 12.2662 2.43655 13.5204C3.68399 14.7747 5.63343 14.7747 6.88088 13.5204L8.04983 12.3447C8.67353 12.5798 9.37533 12.58 9.99905 12.58C9.84324 12.6584 9.76518 12.8149 9.6094 12.9716L7.9717 14.6181C6.10052 16.421 3.1379 16.4995 1.34475 14.6181C-0.448308 12.7368 -0.448191 9.75803 1.34475 7.955L2.98244 6.30852C3.13824 6.1519 3.29409 6.07346 3.37209 5.91692C3.91773 5.52504 4.46339 5.21143 5.08694 5.05461C5.63269 4.89783 6.257 4.89739 6.80276 4.89739ZM8.02834 1.38176C9.89952 -0.421142 12.8621 -0.499614 14.6553 1.38176C16.4484 3.26311 16.4483 6.24182 14.6553 8.04485L13.0176 9.69133C12.8618 9.76976 12.7838 9.92645 12.628 10.0048C12.0823 10.3967 11.5367 10.7103 10.9131 10.8671C10.3673 11.0239 9.74305 11.1027 9.19729 11.0243C8.65174 10.946 8.10635 10.7887 7.63869 10.5536C7.17092 10.3185 6.78046 10.0051 6.39065 9.61321L5.84475 9.06438L6.93655 7.96672L7.48244 8.51555C8.0282 9.14261 8.80814 9.37759 9.50979 9.45598C10.0553 9.45595 10.6007 9.37754 11.0684 9.1425C11.3802 8.98572 11.6929 8.75073 11.9268 8.51555L13.5635 6.86907C14.8109 5.61484 14.8108 3.65557 13.5635 2.40129C12.3161 1.14701 10.3666 1.14701 9.11916 2.40129L7.95022 3.57707C7.3265 3.3419 6.62472 3.34172 6.001 3.34172C6.15693 3.26333 6.23472 3.10593 6.39065 2.94914L8.02834 1.38176Z"/></symbol>
    <symbol id="liveBadge" fill="none" viewBox="0 0 57 22"><rect width="57" height="22" fill="#330C0A" rx="4"/><path fill="#fff" d="M22.128 7.106h-1.86v7.788h4.896v-1.606h-3.036zm7.108 0h-1.86v7.788h1.86zm4.094 0h-2.08l2.894 7.788h1.958l2.937-7.788H36.97l-1.782 5.599h-.044zm13.401 7.788v-1.573h-3.905v-1.65h3.19V10.23h-3.19V8.679H46.6V7.106h-5.544v7.788z"/><circle cx="11.269" cy="11" r="3" fill="#FF3E33"/></symbol>
    <symbol id="maximize" viewBox="0 0 24 24"><path d="M15 3a1 1 0 1 0 0 2h2.586l-3.293 3.293a1 1 0 0 0 1.414 1.414L19 6.414V9a1 1 0 1 0 2 0V4a1 1 0 0 0-1-1zM5 15a1 1 0 1 0-2 0v5a1 1 0 0 0 1 1h5a1 1 0 1 0 0-2H6.414l3.293-3.293a1 1 0 0 0-1.414-1.414L5 17.586z"/></symbol>
    <symbol id="messenger" viewBox="0 0 48 48"><path d="M24.12 3C12.59 3 3.24 11.74 3.24 22.52A19 19 0 0 0 11 37.7v7.47l7.12-4a22.2 22.2 0 0 0 6 .82C35.64 42 45 33.3 45 22.52S35.64 3 24.12 3m2.2 26.18-5.4-5.61-10.4 5.75 11.4-12.1 5.4 5.61 10.4-5.75z"/></symbol>
    <symbol id="minimize" viewBox="0 0 24 24"><path d="M21.207 4.207 17.914 7.5H20.5a1 1 0 1 1 0 2h-5a1 1 0 0 1-1-1v-5a1 1 0 1 1 2 0v2.586l3.293-3.293a1 1 0 1 1 1.414 1.414M3.5 14.5a1 1 0 1 0 0 2h2.586l-3.293 3.293a1 1 0 1 0 1.414 1.414L7.5 17.914V20.5a1 1 0 1 0 2 0v-5a1 1 0 0 0-1-1z"/></symbol>
    <symbol id="next" viewBox="0 0 12 12"><path d="M10.7998 0C11.0473 0 11.2499 0.257067 11.25 0.571289V11.4287C11.2499 11.7429 11.0473 12 10.7998 12H9.4502C9.20273 12 9.00006 11.7429 9 11.4287V6.9248L1.93262 11.8564C1.45099 12.2168 0.750353 11.857 0.75 11.2266V0.773438C0.750353 0.142998 1.45115 -0.216774 1.97656 0.143555L9 5.03027V0.571289C9.00006 0.257067 9.20273 0 9.4502 0H10.7998Z"/></symbol>
    <symbol id="pause" viewBox="0 0 12 12"><path d="M4 0C4.27496 0 4.49993 0.257067 4.5 0.571289V11.4287C4.49993 11.7429 4.27496 12 4 12H2.5C2.22504 12 2.00007 11.7429 2 11.4287V0.571289C2.00007 0.257067 2.22504 0 2.5 0H4ZM9.5 0C9.77496 0 9.99993 0.257067 10 0.571289V11.4287C9.99993 11.7429 9.77496 12 9.5 12H8C7.72504 12 7.50007 11.7429 7.5 11.4287V0.571289C7.50007 0.257067 7.72504 0 8 0H9.5Z"/></symbol>
    <symbol id="play" viewBox="0 0 12 12"><path d="M3 0.773915V11.2261C3 11.8568 3.70073 12.2172 4.18248 11.8568L11.6715 6.63073C12.1095 6.31537 12.1095 5.63958 11.6715 5.32421L4.22628 0.14318C3.70073 -0.217239 3 0.14318 3 0.773915Z"/></symbol>
    <symbol id="previous" viewBox="0 0 12 12"><path d="M1.4502 12C1.20273 12 1.00006 11.7429 1 11.4287L1 0.571289C1.00006 0.257067 1.20273 0 1.4502 0H2.7998C3.04727 0 3.24994 0.257067 3.25 0.571289L3.25 5.0752L10.3174 0.143555C10.799 -0.216774 11.4996 0.142999 11.5 0.773438L11.5 11.2266C11.4996 11.857 10.7989 12.2168 10.2734 11.8564L3.25 6.96973V11.4287C3.24994 11.7429 3.04727 12 2.7998 12H1.4502Z"/></symbol>
    <symbol id="replay" viewBox="0 0 1024 1024"><path d="m790.7 312.8 11.6-65.8 48.6 8.6-25.7 145.7-.7-.1-.1.8-145.7-25.7 8.6-48.6 61.1 10.8C693.8 265.4 607.3 220 514.4 220c-161.1 0-292.1 131-292.1 292s131 292.1 292.1 292.1c112.6 0 216.4-65.9 264.4-167.8l44.6 21c-56.1 119.1-177.3 196.1-308.9 196.1-188.2 0-341.3-153.1-341.3-341.3s153.1-341.3 341.3-341.3c110.1-.1 212.7 54.4 276.2 142"/></symbol>
    <symbol id="share" viewBox="0 0 20 20"><path fill-rule="evenodd" d="M9.293 1.293a1 1 0 0 1 1.414 0l2.5 2.5a1 1 0 0 1-1.414 1.414L11 4.414V12a1 1 0 1 1-2 0V4.414l-.793.793a1 1 0 0 1-1.414-1.414zM3 7a1 1 0 0 1 1 1v7.5c0 .548.452 1 1 1h10c.548 0 1-.452 1-1V8a1 1 0 1 1 2 0v7.5c0 1.652-1.348 3-3 3H5c-1.652 0-3-1.348-3-3V8a1 1 0 0 1 1-1" clip-rule="evenodd"/></symbol>
    <symbol id="threeDots" viewBox="0 0 24 24"><circle cx="5.5" cy="12" r="1.5"/><circle cx="12" cy="12" r="1.5"/><circle cx="18.5" cy="12" r="1.5"/></symbol>
    <symbol id="tidalLogo" viewBox="0 0 16 16"><path d="M2.6667 2.40002L0 5.06646L2.6667 7.7329L5.33341 5.06646L2.6667 2.40002Z" /><path d="M5.33354 5.06849L8.00024 2.40206L10.6668 5.06832L13.3333 2.40206L16 5.06849L13.3333 7.73493L10.6668 5.06832L8.00036 7.73482L10.6661 10.4003L7.99939 13.0667L5.33268 10.4003L7.99928 7.73396L5.33354 5.06849Z"/></symbol>
    <symbol id="tidalLongLogo" viewBox="0 0 69 9"><path d="M9.13281 6.75L6.84961 9L4.56641 6.75L6.84961 4.5L9.13281 6.75ZM27.3975 2.625H25.1064V8.81641H23.335V2.625H21.0449V1.12988H27.3975V2.625ZM34.4785 8.81641H32.6973V1.12988H34.4785V8.81641ZM43.2959 1.12988C45.4253 1.12992 47.5439 2.24075 47.5439 4.95215C47.5439 7.50785 45.4674 8.81637 43.4014 8.81641H40.4092V1.12988H43.2959ZM59.3896 8.81641H57.4316L56.8613 7.2998H53.5732L52.998 8.81641H51.0928L54.3369 1.12988H56.1768L59.3896 8.81641ZM65.9189 7.2998H69V8.81641H64.1367V1.12988H65.9189V7.2998ZM42.1387 7.31055H43.2432C44.7295 7.31054 45.7207 6.39585 45.7207 4.94141C45.7206 3.55989 44.7188 2.625 43.2852 2.625H42.1387V7.31055ZM54.0498 5.93457H56.3896L55.2256 2.92773L54.0498 5.93457ZM4.56641 2.25L2.2832 4.5L0 2.25L2.2832 0L4.56641 2.25ZM9.13281 2.24902L6.84961 4.5L4.56641 2.24902L6.84961 0L9.13281 2.24902ZM13.6982 2.25L11.416 4.5L9.13281 2.25L11.416 0L13.6982 2.25Z"/></symbol>
    <symbol id="twitter" fill="none" viewBox="0 0 24 24"><path fill="#000" d="M13.313 10.771 19.138 4h-1.38l-5.06 5.88L8.66 4H4l6.11 8.89L4 19.993h1.38l5.342-6.21 4.266 6.21h4.66l-6.336-9.22zm-1.891 2.199-.62-.885L5.878 5.04h2.12l3.975 5.686.619.885L17.758 19h-2.12z"/></symbol>
    <symbol id="videoBadge" fill="none" viewBox="0 0 42 16"><rect width="42" height="16" fill="#222226" rx="4"/><path fill="#FCFCFC" d="M7.94 5.086H6.428l2.104 5.664h1.424l2.136-5.664h-1.504L9.292 9.158H9.26zm6.683 0h-1.352v5.664h1.352zm1.859 5.664h2.104c1.568 0 3.144-.88 3.144-2.848 0-2.088-1.608-2.816-3.224-2.816h-2.024zm1.312-4.512h.704c1.088 0 1.848.592 1.848 1.656 0 1.12-.752 1.696-1.88 1.696h-.672zm9.651 4.512V9.606h-2.84v-1.2h2.32V7.358h-2.32V6.23h2.744V5.086h-4.032v5.664zm7.439-2.848c0-1.792-1.32-2.968-3.08-2.968-1.752 0-3.064 1.176-3.064 2.968 0 1.776 1.312 3 3.064 3 1.76 0 3.08-1.224 3.08-3m-1.44 0c0 1-.664 1.768-1.64 1.768-.968 0-1.624-.768-1.624-1.768 0-.992.648-1.744 1.624-1.744.984 0 1.64.752 1.64 1.744"/></symbol>
    <symbol id="upload" width="8" height="10" viewBox="0 0 8 10"><path d="M3.66797 1.25574C3.90206 1.10099 4.22062 1.12675 4.42676 1.33289L7.07324 3.97937L7.15039 4.0741C7.2831 4.27485 7.2831 4.5374 7.15039 4.73816L7.07324 4.83289C6.86725 5.03866 6.54938 5.06433 6.31543 4.91003L6.2207 4.83289L4.67383 3.28601V8.24109C4.67372 8.57388 4.40407 8.84337 4.07129 8.84363C3.7383 8.84363 3.46788 8.57404 3.46777 8.24109V3.14441L1.7793 4.83289C1.5733 5.03864 1.25544 5.06432 1.02148 4.91003L0.926758 4.83289C0.69126 4.59739 0.69126 4.21487 0.926758 3.97937L3.57324 1.33289L3.66797 1.25574Z" stroke-width="0.5"/></symbol>
  </defs>
</svg>
