
<svg xmlns="http://www.w3.org/2000/svg">
  <defs>
    <symbol id="close" viewBox="0 0 24 24"><path d="M7.074 5.754a.933.933 0 1 0-1.32 1.317L10.693 12l-4.937 4.929a.931.931 0 1 0 1.319 1.317l4.938-4.93 4.937 4.93a.933.933 0 0 0 1.581-.662.93.93 0 0 0-.262-.655L13.331 12l4.937-4.929a.93.93 0 0 0-.663-1.578.93.93 0 0 0-.656.261l-4.938 4.93z"/></symbol>
    <symbol id="explicit" viewBox="0 0 16 16"><rect width="16" height="16" fill="#AFAFB6" rx="4"/><path d="M9.986 10.75H5.858V5.086H9.89V6.23H7.146v1.128h2.32v1.048h-2.32v1.2h2.84z"/></symbol>
    <symbol id="explicitBadge" fill="none" viewBox="0 0 52 16"><rect width="52" height="16" fill="#222226" rx="4"/><path fill="#FCFCFC" d="M10.136 10.75V9.606h-2.84v-1.2h2.32V7.358h-2.32V6.23h2.744V5.086H6.008v5.664zm2.767-5.664H11.27l1.872 2.688-2.024 2.976h1.616l1.248-2.016 1.288 2.016h1.664l-2.072-2.976 1.848-2.688h-1.584l-1.096 1.8zm7.747 3.752c1.264 0 2.184-.672 2.184-1.92 0-1.216-.856-1.832-2.176-1.832h-2.44v5.664h1.344V8.838zm-1.088-2.664h.984c.64 0 .952.288.952.776 0 .496-.344.824-.952.824h-.984zm6.179-1.088h-1.352v5.664h3.56V9.582h-2.208zm4.882 0h-1.352v5.664h1.352zm5.906 3.968c-.256.376-.704.608-1.232.608-.951 0-1.631-.736-1.631-1.744 0-1 .672-1.752 1.648-1.752.487 0 .928.216 1.167.544l.896-.944c-.464-.528-1.296-.832-2.12-.832-1.72 0-3.047 1.192-3.047 2.984 0 1.76 1.303 2.984 3.032 2.984.968 0 1.712-.376 2.184-.928zm3.562-3.968h-1.352v5.664h1.352zm4.258 1.152h1.608V5.086h-4.56v1.152h1.608v4.512h1.344z"/></symbol>
    <symbol id="facebook" viewBox="0 0 24 24"><path fill="#0866FF" d="M24 12c0-6.627-5.373-12-12-12S0 5.373 0 12c0 5.628 3.874 10.35 9.101 11.646v-7.98H6.627V12H9.1v-1.58c0-4.085 1.848-5.978 5.858-5.978.76 0 2.072.15 2.609.298v3.325c-.283-.03-.775-.045-1.386-.045-1.968 0-2.728.745-2.728 2.683V12h3.92l-.674 3.667h-3.246v8.245C19.395 23.194 24 18.135 24 12"/><path fill="#fff" d="M16.7 15.667 17.373 12h-3.92v-1.297c0-1.938.761-2.683 2.729-2.683.61 0 1.103.015 1.386.045V4.74c-.537-.15-1.848-.299-2.609-.299-4.01 0-5.858 1.894-5.858 5.978V12H6.627v3.667H9.1v7.98a12 12 0 0 0 4.353.265v-8.245z"/></symbol>
    <symbol id="link" viewBox="0 0 24 24"><g clip-path="url(#a)"><path fill-rule="evenodd" d="M11.95 7.577c-.624-.235-1.325-.235-1.949-.235a.8.8 0 0 0 .247-.23q.062-.078.143-.162l1.637-1.568c1.871-1.803 4.834-1.882 6.627 0s1.793 4.86 0 6.663l-1.637 1.646a.8.8 0 0 0-.195.157.8.8 0 0 1-.195.157c-.546.392-1.091.705-1.715.862-.546.157-1.17.235-1.716.157a5.2 5.2 0 0 1-1.559-.47c-.468-.235-.857-.549-1.247-.941l-.546-.549 1.092-1.097.545.548c.546.628 1.326.863 2.027.941.546 0 1.092-.078 1.56-.313.312-.157.623-.392.857-.628l1.638-1.646a3.135 3.135 0 0 0 0-4.468 3.095 3.095 0 0 0-4.444 0zm.1 8.768c.624.235 1.325.235 1.95.235-.102.05-.17.134-.248.229q-.062.078-.143.163l-1.637 1.646c-1.871 1.803-4.834 1.882-6.627 0s-1.793-4.86 0-6.663l1.637-1.646q.083-.082.162-.145c.095-.078.178-.146.228-.247.546-.392 1.092-.706 1.715-.863.546-.157 1.17-.157 1.716-.157a5.2 5.2 0 0 1 1.559.47c.468.236.857.55 1.247.941l.546.55-1.091 1.097-.546-.549c-.546-.627-1.326-.862-2.027-.94-.546 0-1.092.078-1.56.313a3.5 3.5 0 0 0-.857.627l-1.638 1.646a3.135 3.135 0 0 0 0 4.469 3.095 3.095 0 0 0 4.445 0z" clip-rule="evenodd"/></g><defs><clipPath id="a"><path d="M0 12C0 5.373 5.373 0 12 0s12 5.373 12 12-5.373 12-12 12S0 18.627 0 12"/></clipPath></defs></symbol>
    <symbol id="liveBadge" fill="none" viewBox="0 0 57 22"><rect width="57" height="22" fill="#330C0A" rx="4"/><path fill="#fff" d="M22.128 7.106h-1.86v7.788h4.896v-1.606h-3.036zm7.108 0h-1.86v7.788h1.86zm4.094 0h-2.08l2.894 7.788h1.958l2.937-7.788H36.97l-1.782 5.599h-.044zm13.401 7.788v-1.573h-3.905v-1.65h3.19V10.23h-3.19V8.679H46.6V7.106h-5.544v7.788z"/><circle cx="11.269" cy="11" r="3" fill="#FF3E33"/></symbol>
    <symbol id="maximize" viewBox="0 0 24 24"><path d="M15 3a1 1 0 1 0 0 2h2.586l-3.293 3.293a1 1 0 0 0 1.414 1.414L19 6.414V9a1 1 0 1 0 2 0V4a1 1 0 0 0-1-1zM5 15a1 1 0 1 0-2 0v5a1 1 0 0 0 1 1h5a1 1 0 1 0 0-2H6.414l3.293-3.293a1 1 0 0 0-1.414-1.414L5 17.586z"/></symbol>
    <symbol id="messenger" viewBox="0 0 48 48"><path d="M24.12 3C12.59 3 3.24 11.74 3.24 22.52A19 19 0 0 0 11 37.7v7.47l7.12-4a22.2 22.2 0 0 0 6 .82C35.64 42 45 33.3 45 22.52S35.64 3 24.12 3m2.2 26.18-5.4-5.61-10.4 5.75 11.4-12.1 5.4 5.61 10.4-5.75z"/></symbol>
    <symbol id="minimize" viewBox="0 0 24 24"><path d="M21.207 4.207 17.914 7.5H20.5a1 1 0 1 1 0 2h-5a1 1 0 0 1-1-1v-5a1 1 0 1 1 2 0v2.586l3.293-3.293a1 1 0 1 1 1.414 1.414M3.5 14.5a1 1 0 1 0 0 2h2.586l-3.293 3.293a1 1 0 1 0 1.414 1.414L7.5 17.914V20.5a1 1 0 1 0 2 0v-5a1 1 0 0 0-1-1z"/></symbol>
    <symbol id="next" viewBox="0 0 24 24"><path d="M18 22.5h3c.55 0 1-.45 1-1v-19c0-.55-.45-1-1-1h-3c-.55 0-1 .45-1 1v8.823a1 1 0 0 0-.2-.173L3.55 2.1C2.9 1.6 2 2.1 2 2.9v18.2c0 .8.9 1.3 1.55.8l13.25-9.1q.114-.077.2-.173V21.5c0 .55.45 1 1 1"/></symbol>
    <symbol id="pause" viewBox="0 0 24 24"><path d="M5 22.5h3c.55 0 1-.45 1-1v-19c0-.55-.45-1-1-1H5c-.55 0-1 .45-1 1v19c0 .55.45 1 1 1m11 0h3c.55 0 1-.45 1-1v-19c0-.55-.45-1-1-1h-3c-.55 0-1 .45-1 1v19c0 .55.45 1 1 1"/></symbol>
    <symbol id="play" viewBox="0 0 24 24"><path d="M5 2.9v18.2c0 .8.9 1.3 1.55.8l13.25-9.1c.6-.4.6-1.25 0-1.65L6.55 2.1C5.9 1.6 5 2.1 5 2.9"/></symbol>
    <symbol id="previous" viewBox="0 0 24 24"><path d="M6 22.5H3c-.55 0-1-.45-1-1v-19c0-.55.45-1 1-1h3c.55 0 1 .45 1 1v8.823q.086-.096.2-.173L20.45 2.1c.65-.5 1.55 0 1.55.8v18.2c0 .8-.9 1.3-1.55.8L7.2 12.8a1 1 0 0 1-.2-.173V21.5c0 .55-.45 1-1 1"/></symbol>
    <symbol id="replay" viewBox="0 0 1024 1024"><path d="m790.7 312.8 11.6-65.8 48.6 8.6-25.7 145.7-.7-.1-.1.8-145.7-25.7 8.6-48.6 61.1 10.8C693.8 265.4 607.3 220 514.4 220c-161.1 0-292.1 131-292.1 292s131 292.1 292.1 292.1c112.6 0 216.4-65.9 264.4-167.8l44.6 21c-56.1 119.1-177.3 196.1-308.9 196.1-188.2 0-341.3-153.1-341.3-341.3s153.1-341.3 341.3-341.3c110.1-.1 212.7 54.4 276.2 142"/></symbol>
    <symbol id="share" viewBox="0 0 20 20"><path fill-rule="evenodd" d="M9.293 1.293a1 1 0 0 1 1.414 0l2.5 2.5a1 1 0 0 1-1.414 1.414L11 4.414V12a1 1 0 1 1-2 0V4.414l-.793.793a1 1 0 0 1-1.414-1.414zM3 7a1 1 0 0 1 1 1v7.5c0 .548.452 1 1 1h10c.548 0 1-.452 1-1V8a1 1 0 1 1 2 0v7.5c0 1.652-1.348 3-3 3H5c-1.652 0-3-1.348-3-3V8a1 1 0 0 1 1-1" clip-rule="evenodd"/></symbol>
    <symbol id="threeDots" viewBox="0 0 24 24"><circle cx="5.5" cy="12" r="1.5"/><circle cx="12" cy="12" r="1.5"/><circle cx="18.5" cy="12" r="1.5"/></symbol>
    <symbol id="tidalLogo" viewBox="0 0 24 24"><path d="M12 5.62 8.31 9.31 4.62 5.62.93 9.31 4.62 13l3.69-3.69L12 13l-3.69 3.68 3.69 3.7 3.69-3.7L12 13l3.69-3.69zm3.696 3.69 3.69-3.692 3.692 3.691-3.691 3.692z"/></symbol>
    <symbol id="twitter" fill="none" viewBox="0 0 24 24"><path fill="#000" d="M13.313 10.771 19.138 4h-1.38l-5.06 5.88L8.66 4H4l6.11 8.89L4 19.993h1.38l5.342-6.21 4.266 6.21h4.66l-6.336-9.22zm-1.891 2.199-.62-.885L5.878 5.04h2.12l3.975 5.686.619.885L17.758 19h-2.12z"/></symbol>
    <symbol id="videoBadge" fill="none" viewBox="0 0 42 16"><rect width="42" height="16" fill="#222226" rx="4"/><path fill="#FCFCFC" d="M7.94 5.086H6.428l2.104 5.664h1.424l2.136-5.664h-1.504L9.292 9.158H9.26zm6.683 0h-1.352v5.664h1.352zm1.859 5.664h2.104c1.568 0 3.144-.88 3.144-2.848 0-2.088-1.608-2.816-3.224-2.816h-2.024zm1.312-4.512h.704c1.088 0 1.848.592 1.848 1.656 0 1.12-.752 1.696-1.88 1.696h-.672zm9.651 4.512V9.606h-2.84v-1.2h2.32V7.358h-2.32V6.23h2.744V5.086h-4.032v5.664zm7.439-2.848c0-1.792-1.32-2.968-3.08-2.968-1.752 0-3.064 1.176-3.064 2.968 0 1.776 1.312 3 3.064 3 1.76 0 3.08-1.224 3.08-3m-1.44 0c0 1-.664 1.768-1.64 1.768-.968 0-1.624-.768-1.624-1.768 0-.992.648-1.744 1.624-1.744.984 0 1.64.752 1.64 1.744"/></symbol>
    <symbol id="upload" width="8" height="10" viewBox="0 0 8 10"><path d="M3.66797 1.25574C3.90206 1.10099 4.22062 1.12675 4.42676 1.33289L7.07324 3.97937L7.15039 4.0741C7.2831 4.27485 7.2831 4.5374 7.15039 4.73816L7.07324 4.83289C6.86725 5.03866 6.54938 5.06433 6.31543 4.91003L6.2207 4.83289L4.67383 3.28601V8.24109C4.67372 8.57388 4.40407 8.84337 4.07129 8.84363C3.7383 8.84363 3.46788 8.57404 3.46777 8.24109V3.14441L1.7793 4.83289C1.5733 5.03864 1.25544 5.06432 1.02148 4.91003L0.926758 4.83289C0.69126 4.59739 0.69126 4.21487 0.926758 3.97937L3.57324 1.33289L3.66797 1.25574Z" stroke-width="0.5"/></symbol>
  </defs>
</svg>
